<?xml version="1.0" standalone="no"?>
<!DOCTYPE svg PUBLIC "-//W3C//DTD SVG 20010904//EN"
 "http://www.w3.org/TR/2001/REC-SVG-20010904/DTD/svg10.dtd">
<svg version="1.0" xmlns="http://www.w3.org/2000/svg"
 width="900.000000pt" height="500.000000pt" viewBox="0 0 900.000000 500.000000"
 preserveAspectRatio="xMidYMid meet">

<g transform="translate(0.000000,500.000000) scale(0.100000,-0.100000)"
fill="#000000" stroke="none">
<path d="M1220 3799 c-190 -28 -385 -138 -500 -282 -106 -132 -128 -186 -332
-796 l-192 -576 -4 -131 c-4 -109 -1 -145 17 -215 57 -227 205 -411 416 -515
172 -84 82 -78 1232 -82 1106 -3 1087 -4 1223 51 104 43 172 89 265 182 149
149 157 167 426 973 250 749 260 773 348 832 70 48 111 51 587 48 422 -3 441
-4 484 -24 162 -76 204 -299 79 -423 -19 -18 -54 -43 -79 -55 -42 -19 -67 -21
-375 -26 -219 -4 -339 -10 -357 -17 -41 -18 -107 -82 -129 -125 -11 -21 -22
-64 -25 -97 -6 -50 -3 -67 18 -112 14 -30 178 -258 366 -507 351 -468 397
-521 523 -597 30 -19 98 -49 150 -67 90 -31 101 -32 278 -36 204 -4 263 3 381
49 185 71 329 209 431 411 18 35 134 369 259 744 125 374 234 693 243 710 29
56 96 121 149 145 l53 24 465 0 465 0 49 -25 c133 -68 186 -223 122 -355 -30
-60 -75 -99 -147 -126 -44 -17 -81 -19 -342 -19 -331 0 -364 -5 -435 -66 -76
-64 -105 -157 -82 -256 11 -45 62 -117 370 -527 234 -312 380 -497 423 -538
76 -71 214 -144 314 -167 l62 -14 77 237 c42 130 77 242 78 250 1 9 -18 21
-44 31 -88 32 -126 55 -180 110 -49 49 -330 411 -330 424 0 3 17 6 38 6 59 0
212 35 273 63 415 184 589 658 392 1063 -43 88 -138 208 -208 263 -70 55 -173
109 -263 139 l-77 26 -500 4 c-353 2 -522 0 -575 -8 -264 -42 -483 -204 -605
-450 -21 -41 -138 -374 -260 -740 -122 -366 -233 -687 -247 -715 -30 -58 -96
-127 -147 -152 -29 -14 -61 -18 -156 -18 -66 0 -136 3 -156 8 -69 14 -116 62
-285 290 l-165 222 33 3 c220 19 400 102 539 249 143 150 212 326 211 538 -1
133 -23 226 -82 347 -92 186 -256 325 -468 396 l-77 26 -500 4 c-353 2 -522 0
-575 -8 -86 -14 -211 -57 -279 -96 -128 -75 -248 -204 -322 -347 -26 -50 -122
-323 -270 -765 -138 -414 -240 -702 -256 -727 -42 -64 -103 -114 -159 -130
-43 -13 -183 -15 -1010 -13 l-959 3 -57 28 c-78 38 -126 104 -141 193 l-11 65
182 548 c196 588 211 622 294 679 77 52 79 52 563 52 501 0 507 -1 582 -65 72
-62 103 -176 74 -281 -15 -55 -75 -122 -135 -150 -51 -24 -54 -24 -408 -24
l-356 0 -83 -247 c-45 -137 -84 -254 -87 -261 -4 -11 87 -12 489 -10 l494 4
80 27 c232 77 428 274 501 502 38 118 45 308 15 425 -71 280 -261 479 -546
571 -68 22 -81 23 -570 25 -278 1 -529 -2 -565 -7z"/>
</g>
</svg>
